<svg xmlns="http://www.w3.org/2000/svg" width="1366" height="164.807" viewBox="0 0 1366 164.807">
  <g id="Groupe_13" data-name="Groupe 13" transform="translate(0 -2318.193)">
    <rect id="Rectangle_9" data-name="Rectangle 9" width="1366" height="80" transform="translate(0 2403)" fill="#006dff"/>
    <g id="montagne" transform="translate(1138.857 2318.193)">
      <path id="Tracé_25" data-name="Tracé 25" d="M18.263,81.168c-1.218,4.058-6.9,5.682-18.263,4.87A330.658,330.658,0,0,0,74.269,20.292c6.088,9.334,10.146,13.8,12.175,14.2,12.987-6.9,23.945-17.857,34.5-34.5,7.711,13.8,15.016,21.915,22.727,25.568,4.87,2.435,10.146.406,16.234-6.9,12.987,19.48,26.785,34.091,43.425,45.454a106.31,106.31,0,0,1-44.642-23.945A231.828,231.828,0,0,0,206.572,89.69c-26.38-13.8-50.324-29.22-73.863-49.107-3.247-3.247-6.9-10.552-10.552-23.133-3.653,13.393-7.305,21.915-12.175,26.38,12.987,12.175,25.162,20.292,38.149,25.974-9.334,1.623-18.263,1.218-27.191-2.841a181.8,181.8,0,0,0,30.032,30.844c-23.945-17.857-47.483-36.931-73.457-60.47-3.653,12.987-9.74,21.915-18.669,27.6,5.682,10.146,8.523,17.451,8.523,22.727-3.653-2.435-10.146-6.9-19.886-14.2,1.623,2.435,0,2.435-5.682,0C46.266,83.6,47.077,90.908,44.642,97,39.772,93.749,31.25,88.879,18.263,81.168Z" fill="#006dff" fill-rule="evenodd"/>
    </g>
  </g>
</svg>
