<svg id="METEO" xmlns="http://www.w3.org/2000/svg" width="88.734" height="74.755" viewBox="0 0 88.734 74.755">
  <path id="Tracé_37" data-name="Tracé 37" d="M22.67,44.613A16.346,16.346,0,1,1,50.593,28.636q.828-.069,1.675-.071A19.448,19.448,0,0,1,69.14,38.331,13.379,13.379,0,0,1,81.246,49.373,13.375,13.375,0,0,1,76.579,74.7l-49.837.053a13.374,13.374,0,0,1-5.883-25.383A13.3,13.3,0,0,1,22.67,44.613Zm2.382-2.857a13.328,13.328,0,0,1,8.983-3.467,13.044,13.044,0,0,1,1.347.068A19.479,19.479,0,0,1,46.944,29.3,12.7,12.7,0,1,0,25.052,41.756ZM37.074,11.548a1.823,1.823,0,0,1-3.647,0V1.823a1.823,1.823,0,0,1,3.647,0ZM1.823,35.858a1.823,1.823,0,0,1,0-3.647h9.724a1.823,1.823,0,0,1,0,3.647Zm46.555-20.3a1.824,1.824,0,0,1-3.16-1.823L50.08,5.309a1.824,1.824,0,1,1,3.16,1.823ZM5.917,19.813a1.824,1.824,0,1,1,1.823-3.16l8.421,4.862a1.824,1.824,0,0,1-1.823,3.16Zm50.245,4.862a1.824,1.824,0,0,1-1.823-3.16l8.421-4.862a1.824,1.824,0,0,1,1.823,3.16ZM7.741,52.633a1.824,1.824,0,1,1-1.823-3.16l8.421-4.862a1.824,1.824,0,0,1,1.823,3.16Zm9.52-45.5a1.824,1.824,0,1,1,3.16-1.823l4.862,8.421a1.824,1.824,0,0,1-3.16,1.823ZM76.4,71.055a9.729,9.729,0,0,0,3.243-18.408l-1.673-.819-.316-1.835a9.731,9.731,0,0,0-8.8-8.025l-1.918-.153-.958-1.668a15.809,15.809,0,0,0-27.43.022L37.373,42.22l-2.356-.236c-.326-.032-.652-.049-.982-.049a9.73,9.73,0,0,0-9.583,8.057l-.316,1.835-1.673.819a9.727,9.727,0,0,0,4.276,18.462Z" fill="#ef3e42"/>
</svg>
