<svg xmlns="http://www.w3.org/2000/svg" width="50" height="50" viewBox="0 0 50 50">
  <g id="Phone_icn" transform="translate(-203 -2571)">
    <circle id="Ellipse_3" data-name="Ellipse 3" cx="25" cy="25" r="25" transform="translate(203 2571)" fill="#006dff"/>
    <path id="Tracé_30" data-name="Tracé 30" d="M40.365,5.24H27.575a2.1,2.1,0,0,0-2.1,2.1V34.144a2.1,2.1,0,0,0,2.1,2.1h12.79a2.1,2.1,0,0,0,2.1-2.1V7.336A2.1,2.1,0,0,0,40.365,5.24Zm-6.395,29.2a1.309,1.309,0,1,1,1.309-1.309A1.311,1.311,0,0,1,33.97,34.437Zm7.212-3.955H26.758V7.969H41.183Z" transform="translate(194.521 2575.76)" fill="#fff" fill-rule="evenodd"/>
  </g>
</svg>
