<svg xmlns="http://www.w3.org/2000/svg" width="88.14" height="74.965" viewBox="0 0 88.14 74.965">
  <g id="Snow_Fun_Logo" transform="translate(-211.132 -209.716)">
    <g id="Groupe_1" data-name="Groupe 1" transform="translate(275.067 242.549)">
      <path id="Tracé_1" data-name="Tracé 1" d="M689.275,453.427h-.536a.1.1,0,0,0-.109.091l-1.062,5.663c-.007.014-.013.02-.02.02s-.013-.007-.02-.02l-1.072-5.663a.1.1,0,0,0-.109-.091h-.556a.08.08,0,0,0-.089.091v.02l1.44,6.889a.1.1,0,0,0,.109.091h.566a.1.1,0,0,0,.109-.091l1.439-6.889Q689.384,453.427,689.275,453.427Z" transform="translate(-685.701 -453.427)" fill="#006dff"/>
      <path id="Tracé_2" data-name="Tracé 2" d="M714.85,453.427h-.6a.1.1,0,0,0-.109.091l-1.489,6.888a.094.094,0,0,0,.015.081.091.091,0,0,0,.075.03h.506a.1.1,0,0,0,.109-.091l.248-1.256a.034.034,0,0,1,.015-.03.061.061,0,0,1,.035-.01h1.8a.062.062,0,0,1,.035.01.035.035,0,0,1,.015.03l.248,1.256a.1.1,0,0,0,.109.091h.516a.08.08,0,0,0,.089-.091v-.02l-1.509-6.888A.1.1,0,0,0,714.85,453.427Zm.487,5.116h-1.569c-.02,0-.03-.013-.03-.04l.794-3.981c.007-.02.013-.03.02-.03s.013.01.02.03l.794,3.981C715.367,458.529,715.357,458.543,715.337,458.543Z" transform="translate(-709.022 -453.427)" fill="#006dff"/>
      <path id="Tracé_3" data-name="Tracé 3" d="M750.256,459.89h-2.274a.035.035,0,0,1-.04-.04v-6.321a.089.089,0,0,0-.1-.1h-.506a.089.089,0,0,0-.1.1v6.889a.089.089,0,0,0,.1.1h2.919a.089.089,0,0,0,.1-.1v-.426A.089.089,0,0,0,750.256,459.89Z" transform="translate(-738.947 -453.427)" fill="#006dff"/>
      <path id="Tracé_4" data-name="Tracé 4" d="M688.528,528.621a.088.088,0,0,0-.1.1v6.889a.089.089,0,0,0,.1.1h1.529a1.556,1.556,0,0,0,1.221-.512,1.986,1.986,0,0,0,.457-1.373v-3.323a1.986,1.986,0,0,0-.457-1.373,1.556,1.556,0,0,0-1.221-.512Zm2.234.972a1.539,1.539,0,0,1,.258.942V533.8a1.546,1.546,0,0,1-.273.932.838.838,0,0,1-.7.344l-.874.01a.035.035,0,0,1-.04-.041V529.29a.035.035,0,0,1,.04-.041h.874A.844.844,0,0,1,690.762,529.593Z" transform="translate(-688.061 -518.491)" fill="#006dff"/>
      <path id="Tracé_5" data-name="Tracé 5" d="M718.017,530.7a.116.116,0,0,0,.119-.081l.586-1.884c.02-.074-.007-.111-.079-.111h-.516a.1.1,0,0,0-.109.091l-.447,1.874q-.03.112.079.111Z" transform="translate(-713.271 -518.491)" fill="#006dff"/>
      <path id="Tracé_6" data-name="Tracé 6" d="M732.366,528.621h-.506a.089.089,0,0,0-.1.1v6.889a.089.089,0,0,0,.1.1h.506a.089.089,0,0,0,.1-.1v-6.889A.089.089,0,0,0,732.366,528.621Z" transform="translate(-725.556 -518.491)" fill="#006dff"/>
      <path id="Tracé_7" data-name="Tracé 7" d="M748.035,532.037a10.5,10.5,0,0,0-.888-.724q-.447-.344-.675-.557a1.509,1.509,0,0,1-.342-.451,1.263,1.263,0,0,1-.114-.552,1.183,1.183,0,0,1,.258-.816.841.841,0,0,1,.656-.289.852.852,0,0,1,.7.329,1.347,1.347,0,0,1,.263.866v.263a.089.089,0,0,0,.1.1h.5a.089.089,0,0,0,.1-.1v-.253a1.917,1.917,0,0,0-.452-1.332,1.7,1.7,0,0,0-2.368-.04,1.721,1.721,0,0,0-.447,1.251,1.983,1.983,0,0,0,.184.881,2.185,2.185,0,0,0,.472.643,10.027,10.027,0,0,0,.784.643q.5.385.71.572a1.563,1.563,0,0,1,.348.436,1.23,1.23,0,0,1,.134.592,1.207,1.207,0,0,1-.278.831.889.889,0,0,1-.695.314.855.855,0,0,1-.7-.329,1.329,1.329,0,0,1-.268-.866v-.2a.089.089,0,0,0-.1-.1h-.486a.089.089,0,0,0-.1.1v.233a1.838,1.838,0,0,0,.457,1.3,1.543,1.543,0,0,0,1.191.5,1.567,1.567,0,0,0,1.2-.5,1.878,1.878,0,0,0,.467-1.332,1.819,1.819,0,0,0-.159-.8A2.1,2.1,0,0,0,748.035,532.037Z" transform="translate(-737.288 -517.971)" fill="#006dff"/>
      <path id="Tracé_8" data-name="Tracé 8" d="M780.8,528.621h-2.949a.089.089,0,0,0-.1.1v6.889a.089.089,0,0,0,.1.1H780.8a.089.089,0,0,0,.1-.1v-.425a.089.089,0,0,0-.1-.1h-2.3a.035.035,0,0,1-.04-.041v-2.522a.036.036,0,0,1,.04-.04h1.45a.089.089,0,0,0,.1-.1v-.436a.089.089,0,0,0-.1-.1h-1.45a.035.035,0,0,1-.04-.04V529.29a.035.035,0,0,1,.04-.041h2.3a.089.089,0,0,0,.1-.1v-.426A.089.089,0,0,0,780.8,528.621Z" transform="translate(-765.347 -518.491)" fill="#006dff"/>
      <path id="Tracé_9" data-name="Tracé 9" d="M782.663,515.259a.143.143,0,0,0,.119.071h.318c.059,0,.089-.02.089-.061a.159.159,0,0,0-.02-.061l-.606-1.1a.144.144,0,0,0-.119-.071h-.417c-.053,0-.079.02-.079.061a.155.155,0,0,0,.02.061Z" transform="translate(-768.981 -505.868)" fill="#006dff"/>
      <path id="Tracé_10" data-name="Tracé 10" d="M811.655,532.43a.037.037,0,0,1,.03-.051,1.519,1.519,0,0,0,.755-.669,2.213,2.213,0,0,0,.278-1.134,2.149,2.149,0,0,0-.447-1.413,1.445,1.445,0,0,0-1.172-.542h-1.638a.089.089,0,0,0-.1.1v6.889a.089.089,0,0,0,.1.1h.506a.089.089,0,0,0,.1-.1v-3.1a.035.035,0,0,1,.039-.04h.864a.039.039,0,0,1,.04.03l1.013,3.13a.116.116,0,0,0,.119.081h.516q.09,0,.089-.071l-.01-.041Zm-.655-.537h-.894a.035.035,0,0,1-.039-.04V529.29a.035.035,0,0,1,.039-.041H811a.88.88,0,0,1,.735.365,1.547,1.547,0,0,1,.278.962,1.523,1.523,0,0,1-.278.957A.883.883,0,0,1,811,531.893Z" transform="translate(-792.702 -518.491)" fill="#006dff"/>
      <path id="Tracé_11" data-name="Tracé 11" d="M842.754,529.249h2.3a.089.089,0,0,0,.1-.1v-.426a.089.089,0,0,0-.1-.1h-2.949a.089.089,0,0,0-.1.1v6.889a.089.089,0,0,0,.1.1h2.949a.089.089,0,0,0,.1-.1v-.425a.089.089,0,0,0-.1-.1h-2.3a.035.035,0,0,1-.039-.041v-2.522a.035.035,0,0,1,.039-.04h1.45a.089.089,0,0,0,.1-.1v-.436a.089.089,0,0,0-.1-.1h-1.45a.035.035,0,0,1-.039-.04V529.29A.035.035,0,0,1,842.754,529.249Z" transform="translate(-820.952 -518.491)" fill="#006dff"/>
    </g>
    <path id="Tracé_12" data-name="Tracé 12" d="M212.391,379.39A35.865,35.865,0,0,1,216.1,363.4a.63.63,0,1,0-1.13-.557,37.114,37.114,0,0,0-3.842,16.55,37.572,37.572,0,0,0,4.253,17.358.63.63,0,1,0,1.116-.584A36.308,36.308,0,0,1,212.391,379.39Z" transform="translate(0 -132.191)" fill="#006dff"/>
    <path id="Tracé_13" data-name="Tracé 13" d="M381.785,613.54a.63.63,0,0,0-.854.253A36.276,36.276,0,0,1,375.784,621q-1-1.038-1.944-2.147a.272.272,0,0,0-.431.022,6.315,6.315,0,0,1-1.385,1.659.257.257,0,0,1-.264,0,12.99,12.99,0,0,1-4.543-4.464.271.271,0,0,0-.463.01,7.665,7.665,0,0,1-3.013,3.249c-.63.318-1.31.1-2.081-.724a.268.268,0,0,0-.419.035,25.51,25.51,0,0,1-3.095,3.775c-.305-.406-.614-.831-.913-1.272a.27.27,0,0,0-.419-.038c-.771.831-1.451,1.042-2.084.727a7.659,7.659,0,0,1-3.01-3.249.271.271,0,0,0-.463-.013,13,13,0,0,1-4.543,4.467.263.263,0,0,1-.268,0,6.509,6.509,0,0,1-1.385-1.659.269.269,0,0,0-.428-.025,46.678,46.678,0,0,1-9.614,8.6,36.144,36.144,0,0,1-6.8-3.778.63.63,0,0,0-.726,1.029,37.485,37.485,0,0,0,43.751-.434c.76-.554,1.512-1.153,2.232-1.777.395-.336.791-.693,1.211-1.089.7-.651,1.374-1.334,2-2.025a37.515,37.515,0,0,0,5.351-7.487A.63.63,0,0,0,381.785,613.54Zm-21.806,9.14a.269.269,0,0,1,.359.393c-.274.337-.548.667-.834.985-.2-.233-.409-.466-.611-.708C359.261,623.145,359.623,622.919,359.979,622.68Zm-23.186,7.285a.264.264,0,0,1,.349-.085c1.36.8,2.353,1.375,3.035,1.8a35.77,35.77,0,0,1-4.134-1.313A1.251,1.251,0,0,0,336.793,629.964Zm35.861-5.925c-.7.6-1.422,1.181-2.155,1.716a35.907,35.907,0,0,1-21.431,7.021,36.389,36.389,0,0,1-8.417-.981.267.267,0,0,0,.122-.165,4.151,4.151,0,0,0-.29-2.421c-.079-.211.185-.477.412-.468a1.349,1.349,0,0,1,.517.159c.847.63,1.5,1.1,1.98,1.423a.27.27,0,0,0,.422-.274,9.741,9.741,0,0,0-1.017-2.405.271.271,0,0,1,.085-.356,6.271,6.271,0,0,0,2.323-3.378.273.273,0,0,1,.441-.12c3.57,3.218,6.819,5.843,10.125,8.311a25.054,25.054,0,0,1-3.661-3.627.273.273,0,0,1,.286-.435,6.152,6.152,0,0,0,2.018.192.272.272,0,0,0,.11-.513,19.142,19.142,0,0,1-4.373-3.1.275.275,0,0,1-.025-.378,7.4,7.4,0,0,0,1.3-2.707.271.271,0,0,1,.516-.006,6.665,6.665,0,0,0,1.222,2.424l.025.025q1.8,1.525,3.652,2.824c.142.1.28.2.422.293,1.294.9,2.61,1.728,3.97,2.512a.27.27,0,0,0,.315-.434,31.921,31.921,0,0,1-2.852-2.934c-.189-.214-.375-.438-.557-.664a.108.108,0,0,1-.022-.035.269.269,0,0,1,.365-.371.116.116,0,0,0,.019.009c.309.214.62.409.941.592a14.141,14.141,0,0,0,2.226,1.055.272.272,0,0,0,.261-.469q-.741-.595-1.432-1.272a53.365,53.365,0,0,0,4.788-3.6.109.109,0,0,1,.032-.025,6.69,6.69,0,0,0,1.221-2.424.269.269,0,0,1,.513.006,7.357,7.357,0,0,0,1.3,2.7.272.272,0,0,1-.025.378,19.312,19.312,0,0,1-4.37,3.1.271.271,0,0,0,.1.513,6.278,6.278,0,0,0,2.024-.2.271.271,0,0,1,.28.434,25.1,25.1,0,0,1-3.661,3.63c3.312-2.471,6.561-5.094,10.128-8.314a.274.274,0,0,1,.441.123,8.1,8.1,0,0,0,.643,1.49l-.09.086C373.418,623.37,373.036,623.713,372.654,624.039Z" transform="translate(-100.453 -349.354)" fill="#006dff"/>
    <path id="Tracé_14" data-name="Tracé 14" d="M727.555,356.682a.63.63,0,0,0-.266.85,36.042,36.042,0,0,1,2.931,7.58.63.63,0,0,0,.609.471.637.637,0,0,0,.16-.021.629.629,0,0,0,.45-.768,37.3,37.3,0,0,0-3.033-7.845A.63.63,0,0,0,727.555,356.682Z" transform="translate(-446.557 -127.105)" fill="#006dff"/>
    <path id="Tracé_15" data-name="Tracé 15" d="M364.069,214.737a35.858,35.858,0,0,1,16.092-3.761,36.3,36.3,0,0,1,16.876,4.163.63.63,0,0,0,.588-1.114,37.565,37.565,0,0,0-17.464-4.308,37.108,37.108,0,0,0-16.652,3.893.63.63,0,0,0,.56,1.128Z" transform="translate(-131.546 0)" fill="#006dff"/>
    <path id="Tracé_16" data-name="Tracé 16" d="M251.692,268.3c1.347.373,3.84,1.573,4.08,2.223s-.165,2.141-1.74.877-4.283-3.67-7.207-.277-.652,6.538.731,7.868a10.8,10.8,0,0,0,10.922,1.944,12.516,12.516,0,0,0,7.236-8,9.04,9.04,0,0,0-2.732-8.146,9.9,9.9,0,0,0-4.972-2.4,1.083,1.083,0,0,1-.693-1.494c.568-1.209,2.49.267,2.93.652a3.33,3.33,0,0,0,4.757-.854c1.579-2.223.318-4.329-.793-5.44a13.865,13.865,0,0,0-6.317-3.451c-2.5-.44-6.094-.367-7.978.837a7.362,7.362,0,0,0-3.722,4.865,9.841,9.841,0,0,0,.857,7.2A9.123,9.123,0,0,0,251.692,268.3Z" transform="translate(-29.654 -36.203)" fill="#ef3e42"/>
    <path id="Tracé_17" data-name="Tracé 17" d="M382.387,283.678s3.311,1.672,6.427-2.924a8.485,8.485,0,0,0,1.324-4.747.136.136,0,0,1,.269-.031,21.547,21.547,0,0,0,1.485,4.467c.818,1.324,2.882.857,3.233.7,0,0,1.484-.21,2.61-3.107a30.33,30.33,0,0,0,1.786-8.153,32.5,32.5,0,0,0-.322-8.182,3.42,3.42,0,0,0-3.706-3.066,4.436,4.436,0,0,0-2.974,1.418c-.821,1.066-1.464,2.1-1.464,2.1a9.6,9.6,0,0,0-2.562-3.066,4.508,4.508,0,0,0-5.687,1.858,4.562,4.562,0,0,1,1.612,4.893,5.94,5.94,0,0,1-3.247,3.591,9.686,9.686,0,0,1,3.638,6.893C385.03,281.428,382.387,283.678,382.387,283.678Z" transform="translate(-147.129 -42.329)" fill="#ef3e42"/>
    <path id="Tracé_18" data-name="Tracé 18" d="M519.2,265.034c-.01.359-.029.7-.05,1-.035.45-.082.91-.139,1.373,0,.013,0,.022,0,.031a28.853,28.853,0,0,1-1.141,5.747,1.159,1.159,0,0,0,.041.853,2.244,2.244,0,0,0,.2.353c.765,1.067,3.008,3.335,6.65,1.084,4.637-2.868,6.245-8.66,6.407-10.707.128-1.619.107-7.669-3.835-10.251-2.947-1.93-6.9.995-8.185,2.2a1.144,1.144,0,0,0-.261.819,40.407,40.407,0,0,1,.343,7.024C519.214,264.719,519.205,264.877,519.2,265.034Zm3.863,1.766a5.04,5.04,0,0,0,.189-1.054,10.274,10.274,0,0,0-.027-1.267.315.315,0,0,1,.107-.266c.238-.207.778-.555,1.2-.277.62.406.6,1.357.6,1.612a2.461,2.461,0,0,1-1.008,1.681.707.707,0,0,1-1.036-.167A.5.5,0,0,1,523.059,266.8Z" transform="translate(-265.353 -38.212)" fill="#ef3e42"/>
    <path id="Tracé_19" data-name="Tracé 19" d="M613.082,266.944c-.375,4.533-1.474,5.974-1.474,5.974s.631,1.373,3.408,1.052c2.274-.262,3.689-2.853,4.126-3.782a.138.138,0,0,1,.256.009c1.1,3.215,4.9,5.072,5.23,2.011a108.85,108.85,0,0,1,2.746-12.822,1.588,1.588,0,0,0-.741-1.759,4.3,4.3,0,0,0-1.577-.478,3.582,3.582,0,0,0-3.524,2.083A3.4,3.4,0,0,0,618.914,258a3.016,3.016,0,0,0-2.51,1.388c-3.1-2.617-5.473-.967-5.473-.967S613.44,262.625,613.082,266.944Z" transform="translate(-345.938 -41.02)" fill="#ef3e42"/>
    <path id="Tracé_20" data-name="Tracé 20" d="M267.159,501.092c.651-.537,2.41-1.641,3.385-2.257s2.283-1.039,2.574-4.094c.273-2.863-1.344-3.8-1.908-3.906s-1.774.007-1.774-.621c0-.709,1.008-.659,2.424-.957s4.4-2.833,4.549-5.518-1.417-4.325-2.386-4.548-2.61-.447-7.9.82a7.714,7.714,0,0,0-6.263,6.636s-3.1,20.158-2.748,22.29a4.111,4.111,0,0,0,3.487,3.128,4.84,4.84,0,0,0,3.538-2.051c.872-1.128,1.519-5.447,1.744-6.667A3.7,3.7,0,0,1,267.159,501.092Z" transform="translate(-39.759 -233.022)" fill="#ef3e42"/>
    <path id="Tracé_21" data-name="Tracé 21" d="M370.339,461.156s4.03,9.029,15.3-.713c4.817-4.163,7.818-17.213,6.962-23.044a3.1,3.1,0,0,0-2.106-2.517c-1.82-.584-4.727-.383-6.929,5.158a9.365,9.365,0,0,0-.648,2.98l-.291,5.717a3.289,3.289,0,0,1-.666,1.823.685.685,0,0,1-1.165-.124,3.267,3.267,0,0,1-.179-2.3,22.805,22.805,0,0,0,.955-7.927,1.984,1.984,0,0,0-.09-.455c-1.1-3.276-5.9-1.974-6.633.7,0,0,4.478,6.7-3.573,11.42C371.278,451.871,374.84,456.855,370.339,461.156Z" transform="translate(-137.758 -194.638)" fill="#ef3e42"/>
    <path id="Tracé_22" data-name="Tracé 22" d="M532.086,418.61a.144.144,0,0,1,.255-.059,4.374,4.374,0,0,0,3.926,1.913,4.812,4.812,0,0,0,4.245-3.886c.344-1.136,3.144-12.51,3.052-14.265s-1.8-2.817-3.833-2.494c-1.91.3-3.78,4.649-4.343,6.281a.185.185,0,0,1-.3.077,21.8,21.8,0,0,0-3.714-2.94,3.148,3.148,0,0,0-3.233.369c-.37.416-.6.878-.4,2.561.17,1.4,1.259,8.267-2.86,18.987C524.881,425.155,529.706,428.752,532.086,418.61Z" transform="translate(-271.48 -164.443)" fill="#ef3e42"/>
  </g>
</svg>
