<svg xmlns="http://www.w3.org/2000/svg" viewBox="0 0 654.24 556.45"><defs><style>.cls-1{fill:#006dff;}.cls-2{fill:#ef3e42;}</style></defs><title>Snow_Fun_Logo</title><g id="Calque_2" data-name="Calque 2"><g id="Calque_2-2" data-name="Calque 2"><path class="cls-1" d="M501.1,243.71h-4a.77.77,0,0,0-.81.68l-7.89,42c0,.1-.09.15-.14.15s-.1-.05-.15-.15l-8-42a.71.71,0,0,0-.81-.68h-4.13a.59.59,0,0,0-.66.68v.15l10.69,51.13a.76.76,0,0,0,.81.68h4.2a.71.71,0,0,0,.81-.68l10.68-51.13C501.86,244,501.64,243.71,501.1,243.71Z"/><path class="cls-1" d="M517.83,243.71h-4.42a.77.77,0,0,0-.81.68l-11.06,51.13a.63.63,0,0,0,.67.83H506a.72.72,0,0,0,.82-.68l1.84-9.32a.25.25,0,0,1,.11-.23A.45.45,0,0,1,509,286h13.34a.44.44,0,0,1,.25.08.25.25,0,0,1,.11.23l1.85,9.32a.76.76,0,0,0,.81.68h3.83a.59.59,0,0,0,.66-.68v-.15l-11.2-51.13A.71.71,0,0,0,517.83,243.71Zm3.61,38H509.8c-.15,0-.22-.1-.22-.3l5.89-29.55c0-.15.1-.22.15-.22s.1.07.15.22l5.89,29.55C521.66,281.58,521.59,281.68,521.44,281.68Z"/><path class="cls-1" d="M558.51,291.68H541.63a.26.26,0,0,1-.29-.3V244.46a.66.66,0,0,0-.74-.75h-3.76a.65.65,0,0,0-.73.75v51.13c0,.51.24.76.73.76h21.67a.66.66,0,0,0,.74-.76v-3.15A.67.67,0,0,0,558.51,291.68Z"/><path class="cls-1" d="M478,318.91a.65.65,0,0,0-.73.75v51.13a.65.65,0,0,0,.73.75h11.35a11.53,11.53,0,0,0,9.07-3.8q3.39-3.8,3.39-10.19V332.89q0-6.39-3.39-10.19a11.55,11.55,0,0,0-9.07-3.79Zm16.59,7.21a11.5,11.5,0,0,1,1.91,7v24.21a11.42,11.42,0,0,1-2,6.92,6.21,6.21,0,0,1-5.19,2.55l-6.49.08a.26.26,0,0,1-.29-.3V323.87a.26.26,0,0,1,.29-.3h6.49A6.28,6.28,0,0,1,494.62,326.12Z"/><path class="cls-1" d="M509.8,334.32a.86.86,0,0,0,.88-.6l4.35-14c.15-.55,0-.82-.59-.82h-3.83a.75.75,0,0,0-.81.67l-3.32,13.91c-.15.55,0,.83.59.83Z"/><path class="cls-1" d="M525.12,318.91h-3.75a.66.66,0,0,0-.74.75v51.13a.66.66,0,0,0,.74.75h3.75a.66.66,0,0,0,.74-.75V319.66A.66.66,0,0,0,525.12,318.91Z"/><path class="cls-1" d="M554.34,348.12a77.24,77.24,0,0,0-6.59-5.38q-3.32-2.55-5-4.13a11.26,11.26,0,0,1-2.54-3.35,9.3,9.3,0,0,1-.85-4.1,8.82,8.82,0,0,1,1.91-6.05,6.68,6.68,0,0,1,10.06.3,10,10,0,0,1,2,6.43v2c0,.5.24.76.73.76h3.69c.49,0,.73-.26.73-.76v-1.88q0-6.17-3.35-9.88a12.6,12.6,0,0,0-17.58-.31q-3.32,3.43-3.31,9.29a14.66,14.66,0,0,0,1.36,6.54,16.28,16.28,0,0,0,3.5,4.78,74.82,74.82,0,0,0,5.83,4.77c2.45,1.91,4.21,3.32,5.26,4.25a11.63,11.63,0,0,1,2.58,3.23,9.08,9.08,0,0,1,1,4.4,8.94,8.94,0,0,1-2.07,6.17,6.6,6.6,0,0,1-5.15,2.33,6.32,6.32,0,0,1-5.16-2.44,9.84,9.84,0,0,1-2-6.43V357.1a.66.66,0,0,0-.74-.75H535a.66.66,0,0,0-.74.75v1.73a13.67,13.67,0,0,0,3.39,9.63,11.45,11.45,0,0,0,8.85,3.68,11.63,11.63,0,0,0,8.91-3.72q3.47-3.72,3.47-9.89a13.58,13.58,0,0,0-1.18-5.9A15.65,15.65,0,0,0,554.34,348.12Z"/><path class="cls-1" d="M589.24,318.91H567.35a.65.65,0,0,0-.73.75v51.13a.65.65,0,0,0,.73.75h21.89a.66.66,0,0,0,.74-.75v-3.16a.66.66,0,0,0-.74-.75h-17.1a.26.26,0,0,1-.29-.3V347.85a.27.27,0,0,1,.29-.3H582.9a.66.66,0,0,0,.74-.75v-3.23a.66.66,0,0,0-.74-.75H572.14a.26.26,0,0,1-.29-.3V323.87a.26.26,0,0,1,.29-.3h17.1a.66.66,0,0,0,.74-.75v-3.16A.66.66,0,0,0,589.24,318.91Z"/><path class="cls-1" d="M576.12,313.42a1.07,1.07,0,0,0,.89.52h2.36q.66,0,.66-.45a1.15,1.15,0,0,0-.15-.45l-4.49-8.2a1.08,1.08,0,0,0-.89-.52h-3.09c-.4,0-.59.15-.59.45a1.28,1.28,0,0,0,.14.45Z"/><path class="cls-1" d="M615.25,347.18a.28.28,0,0,1,.23-.38,11.3,11.3,0,0,0,5.6-5,16.47,16.47,0,0,0,2.06-8.42q0-6.46-3.32-10.49a10.72,10.72,0,0,0-8.69-4H599a.66.66,0,0,0-.74.75v51.13a.66.66,0,0,0,.74.75h3.76a.65.65,0,0,0,.73-.75v-23a.27.27,0,0,1,.3-.3h6.41a.28.28,0,0,1,.29.22L618,370.94a.86.86,0,0,0,.89.6h3.83c.44,0,.66-.17.66-.53l-.07-.3Zm-4.86-4h-6.63a.27.27,0,0,1-.3-.3v-19a.27.27,0,0,1,.3-.3h6.63a6.52,6.52,0,0,1,5.45,2.7,11.48,11.48,0,0,1,2.07,7.15,11.25,11.25,0,0,1-2.07,7.1A6.54,6.54,0,0,1,610.39,343.19Z"/><path class="cls-1" d="M636.4,323.57h17.1a.66.66,0,0,0,.74-.75v-3.16a.66.66,0,0,0-.74-.75H631.61a.65.65,0,0,0-.73.75v51.13a.65.65,0,0,0,.73.75H653.5a.66.66,0,0,0,.74-.75v-3.16a.66.66,0,0,0-.74-.75H636.4a.26.26,0,0,1-.29-.3V347.85a.27.27,0,0,1,.29-.3h10.76a.66.66,0,0,0,.74-.75v-3.23a.66.66,0,0,0-.74-.75H636.4a.26.26,0,0,1-.29-.3V323.87A.26.26,0,0,1,636.4,323.57Z"/><path class="cls-1" d="M9.35,278.22A266.17,266.17,0,0,1,36.91,159.51a4.68,4.68,0,0,0-8.39-4.13A275.57,275.57,0,0,0,0,278.22,278.94,278.94,0,0,0,31.57,407.07a4.67,4.67,0,0,0,4.14,2.5,4.73,4.73,0,0,0,2.17-.53,4.68,4.68,0,0,0,2-6.31A269.43,269.43,0,0,1,9.35,278.22Z"/><path class="cls-1" d="M521.08,404.31a4.68,4.68,0,0,0-6.34,1.88,269.11,269.11,0,0,1-38.21,53.51q-7.39-7.69-14.42-15.94a2,2,0,0,0-3.21.17c-4.69,7-8.13,11-10.28,12.31a1.89,1.89,0,0,1-2,0c-12.57-6.89-23.39-17.5-33.72-33.13a2,2,0,0,0-3.44.07C402,436,394.74,443.69,387.14,447.29c-4.67,2.36-9.72.77-15.45-5.37a2,2,0,0,0-3.1.26,189.83,189.83,0,0,1-23,28c-2.27-3-4.56-6.17-6.78-9.44a2,2,0,0,0-3.11-.28c-5.72,6.17-10.77,7.74-15.47,5.4-7.59-3.6-14.81-11.29-22.34-24.12a2,2,0,0,0-3.43-.09c-10.36,15.63-21.13,26.27-33.72,33.16a2,2,0,0,1-2,0c-2.13-1.33-5.56-5.3-10.28-12.31a2,2,0,0,0-3.18-.19A346.8,346.8,0,0,1,174,526.15a268.24,268.24,0,0,1-50.5-28,4.67,4.67,0,0,0-5.39,7.64,278.24,278.24,0,0,0,324.75-3.22c5.64-4.11,11.22-8.56,16.57-13.19,2.93-2.5,5.87-5.15,9-8.08,5.19-4.84,10.2-9.9,14.86-15A278.46,278.46,0,0,0,523,410.65,4.68,4.68,0,0,0,521.08,404.31ZM359.22,472.16a2,2,0,0,1,2.66,2.92c-2,2.5-4.07,4.95-6.19,7.31-1.52-1.73-3-3.46-4.54-5.26C353.89,475.61,356.58,473.93,359.22,472.16ZM187.11,526.23a2,2,0,0,1,2.59-.63c10.1,6,17.47,10.21,22.53,13.36a265.38,265.38,0,0,1-30.68-9.75C184.22,528.61,186,527.62,187.11,526.23Zm266.19-44c-5.18,4.48-10.56,8.77-16,12.74A266.55,266.55,0,0,1,278.22,547.1a270,270,0,0,1-62.48-7.29,2,2,0,0,0,.91-1.22c1.19-4.93.53-10.72-2.15-18-.59-1.56,1.37-3.54,3.05-3.47a10,10,0,0,1,3.84,1.18c6.29,4.68,11.17,8.13,14.7,10.56a2,2,0,0,0,3.13-2c-1-4.7-3.55-10.51-7.55-17.85a2,2,0,0,1,.63-2.64c7.9-5.54,13.58-13.7,17.25-25.08a2,2,0,0,1,3.27-.88c26.5,23.88,50.62,43.37,75.15,61.69a186.13,186.13,0,0,1-27.17-26.92,2,2,0,0,1,2.12-3.23,45.68,45.68,0,0,0,15,1.43,2,2,0,0,0,.82-3.81c-10.91-5.49-21.45-12.88-32.46-23a2,2,0,0,1-.19-2.8c3.7-4.11,6.73-10.7,9.65-20.1a2,2,0,0,1,3.84,0c3.15,9.37,6.24,15.12,9.06,18l.19.19q13.4,11.32,27.11,21c1.05.72,2.08,1.47,3.13,2.17,9.6,6.68,19.37,12.83,29.47,18.65a2,2,0,0,0,2.33-3.23,237.32,237.32,0,0,1-21.17-21.77c-1.4-1.59-2.78-3.25-4.13-4.93a1.15,1.15,0,0,1-.17-.26,2,2,0,0,1,2.71-2.76.91.91,0,0,0,.14.07c2.29,1.59,4.61,3,7,4.39a104.2,104.2,0,0,0,16.52,7.83,2,2,0,0,0,1.94-3.48c-3.67-2.94-7.22-6.1-10.63-9.44a397,397,0,0,0,35.54-26.76.66.66,0,0,1,.24-.18c2.82-2.88,5.91-8.65,9.06-18a2,2,0,0,1,3.81.05c2.92,9.39,6,16,9.65,20.07a2,2,0,0,1-.18,2.81c-11,10.12-21.53,17.5-32.44,23a2,2,0,0,0,.77,3.81,46.54,46.54,0,0,0,15-1.45,2,2,0,0,1,2.08,3.23,185.89,185.89,0,0,1-27.18,26.94c24.58-18.34,48.7-37.81,75.17-61.71a2,2,0,0,1,3.28.91,59.89,59.89,0,0,0,4.77,11.06l-.67.64C459,477.28,456.13,479.83,453.3,482.25Z"/><path class="cls-1" d="M518.59,147.43a4.68,4.68,0,0,0-2,6.31A267.71,267.71,0,0,1,538.37,210a4.68,4.68,0,0,0,4.52,3.49,4.91,4.91,0,0,0,1.19-.15,4.68,4.68,0,0,0,3.34-5.7A277,277,0,0,0,524.9,149.4,4.68,4.68,0,0,0,518.59,147.43Z"/><path class="cls-1" d="M158.78,37.27A266.14,266.14,0,0,1,278.23,9.35a269.38,269.38,0,0,1,125.26,30.9,4.63,4.63,0,0,0,2.18.54A4.67,4.67,0,0,0,407.85,32,278.82,278.82,0,0,0,278.23,0,275.39,275.39,0,0,0,154.62,28.9a4.67,4.67,0,0,0,4.16,8.37Z"/><path class="cls-2" d="M81,166.11c10,2.77,28.5,11.68,30.28,16.5S110,198.5,98.33,189.12s-31.79-27.24-53.5-2.06S40,235.59,50.25,245.47s44.6,29.62,81.07,14.42,51.6-48.14,53.71-59.36,2.65-39.59-20.27-60.47c-17.09-15.56-33.82-16.61-36.91-17.8-3.92-1.51-7.68-5.69-5.14-11.09,4.21-9,18.48,2,21.74,4.84,5.44,4.75,23.59,10.16,35.31-6.34s2.36-32.13-5.89-40.38S145.56,46.94,127,43.67,81.75,41,67.76,49.89,44,68.53,40.14,86c-4.11,18.46-3.09,36.86,6.36,53.41C53.62,151.89,70.61,163.25,81,166.11Z"/><path class="cls-2" d="M179.08,234.8s24.58,12.41,47.71-21.7c8-11.08,9.71-25.47,9.82-35.24a1,1,0,0,1,2-.23c2.72,10.87,7.16,26.91,11,33.15,6.07,9.83,21.39,6.36,24,5.21,0,0,11-1.56,19.37-23.06,4-10.34,11.74-35.67,13.25-60.52,1.56-25.79,1.05-38-2.39-60.73s-23.09-22.76-27.51-22.76S260,52,254.28,59.45c-6.1,7.91-10.87,15.62-10.87,15.62s-9.17-17-19-22.75-32.8-3.67-42.22,13.79c0,0,17.86,11.94,12,36.32C189.7,120.8,170,129.08,170,129.08s25.58,18.63,27,51.17C198.7,218.1,179.08,234.8,179.08,234.8Z"/><path class="cls-2" d="M317,127c-.07,2.67-.21,5.17-.38,7.44-.25,3.34-.61,6.75-1,10.18,0,.1,0,.17,0,.24-1.82,17.64-5.17,32.54-8.47,42.66a8.6,8.6,0,0,0,.3,6.33,16.75,16.75,0,0,0,1.48,2.62c5.67,7.92,22.32,24.75,49.36,8.05,34.42-21.29,46.35-64.29,47.56-79.48.94-12,.79-56.92-28.47-76.09-21.87-14.32-51.2,7.39-60.75,16.32-2.25,2.1-1.94,6.07-1.94,6.07,1.73,14.07,3.52,31.83,2.54,52.14C317.17,124.64,317.1,125.81,317,127Zm28.67,13.11a37.11,37.11,0,0,0,1.4-7.82,75.89,75.89,0,0,0-.2-9.41,2.36,2.36,0,0,1,.8-2c1.77-1.53,5.78-4.11,8.93-2.05,4.61,3,4.49,10.07,4.49,12s-2.08,9.14-7.48,12.48c-4.25,2.62-6.8,0-7.68-1.24A3.57,3.57,0,0,1,345.7,140.08Z"/><path class="cls-2" d="M415.76,120.31C413,154,404.82,164.65,404.82,164.65s4.69,10.19,25.3,7.81c16.88-1.94,27.38-21.17,30.63-28.07a1,1,0,0,1,1.89.07c8.14,23.86,36.38,37.65,38.82,14.92,3.56-33,16-76.66,20.39-95.17a11.78,11.78,0,0,0-5.51-13,31.65,31.65,0,0,0-11.71-3.55c-18.19-2.28-26.16,15.46-26.16,15.46A25.24,25.24,0,0,0,459.05,54c-12.68,0-18.63,10.31-18.63,10.31-23-19.43-40.62-7.18-40.62-7.18S418.42,88.25,415.76,120.31Z"/><path class="cls-2" d="M120.76,433.15c4.83-4,17.89-12.18,25.12-16.75s17-7.71,19.11-30.39c2-21.25-10-28.23-14.16-29s-13.17.05-13.17-4.61c0-5.26,7.48-4.89,18-7.1s32.65-21,33.76-41-10.51-32.1-17.71-33.76-19.37-3.32-58.67,6.09-44.83,39.85-46.49,49.26c0,0-23,149.62-20.4,165.45,2,12.36,16,23.22,25.88,23.22s19.8-6.85,26.27-15.23S109.57,459,111.24,449.9A27.5,27.5,0,0,1,120.76,433.15Z"/><path class="cls-2" d="M159.21,421.62s29.91,67,113.58-5.29c35.75-30.9,58-127.77,51.68-171a23,23,0,0,0-15.63-18.68c-13.51-4.34-35.09-2.85-51.43,38.28A69.47,69.47,0,0,0,252.6,287l-2.16,42.44A24.34,24.34,0,0,1,245.49,343a5.08,5.08,0,0,1-8.64-.92,24.23,24.23,0,0,1-1.33-17.1c3.57-12.22,9.14-35.85,7.09-58.84a14.47,14.47,0,0,0-.67-3.38c-8.19-24.31-43.77-14.65-49.24,5.21,0,0,33.24,49.76-26.52,84.77C166.18,352.71,192.62,389.7,159.21,421.62Z"/><path class="cls-2" d="M367.23,330a1.07,1.07,0,0,1,1.89-.44c3.62,4.74,14.26,16.52,29.14,14.2,22.28-3.46,28.08-17.53,31.51-28.84,2.56-8.43,23.34-92.86,22.65-105.88S439.05,188.08,424,190.48c-14.18,2.25-28.06,34.5-32.23,46.62a1.38,1.38,0,0,1-2.25.57c-4.78-4.49-19.34-17.85-27.57-21.83-9.94-4.8-21.25-.34-24,2.75s-4.46,6.51-2.94,19c1.27,10.38,9.35,61.37-21.23,140.94C313.75,378.53,349.56,405.23,367.23,330Z"/></g></g></svg>