<svg xmlns="http://www.w3.org/2000/svg" width="250.281" height="212.87" viewBox="0 0 250.281 212.87">
  <g id="Snow_Fun_Logo" transform="translate(-211.132 -209.716)">
    <g id="Groupe_1" data-name="Groupe 1" transform="translate(392.68 302.948)">
      <path id="Tracé_1" data-name="Tracé 1" d="M695.85,453.427h-1.522a.291.291,0,0,0-.31.259L691,469.766c-.019.039-.038.057-.056.057s-.038-.019-.056-.057l-3.045-16.08a.271.271,0,0,0-.31-.259h-1.579a.227.227,0,0,0-.254.259v.057l4.088,19.561a.291.291,0,0,0,.31.259h1.606a.272.272,0,0,0,.311-.259l4.087-19.561Q696.16,453.427,695.85,453.427Z" transform="translate(-685.701 -453.427)" fill="#006dff"/>
      <path id="Tracé_2" data-name="Tracé 2" d="M718.892,453.427H717.2a.291.291,0,0,0-.31.259l-4.229,19.56a.268.268,0,0,0,.042.23.259.259,0,0,0,.212.086h1.437a.271.271,0,0,0,.31-.259l.705-3.567a.1.1,0,0,1,.042-.087.174.174,0,0,1,.1-.029h5.1a.176.176,0,0,1,.1.029.1.1,0,0,1,.042.087l.7,3.567a.292.292,0,0,0,.31.259h1.466a.227.227,0,0,0,.254-.259v-.058l-4.285-19.56A.271.271,0,0,0,718.892,453.427Zm1.382,14.526h-4.454c-.057,0-.085-.038-.085-.115l2.255-11.3c.019-.057.038-.086.056-.086s.037.029.057.086l2.255,11.3C720.358,467.915,720.33,467.953,720.274,467.953Z" transform="translate(-702.343 -453.427)" fill="#006dff"/>
      <path id="Tracé_3" data-name="Tracé 3" d="M755.808,471.779h-6.456a.1.1,0,0,1-.112-.115v-17.95a.252.252,0,0,0-.282-.288h-1.438a.252.252,0,0,0-.281.288v19.561a.251.251,0,0,0,.281.288h8.289a.252.252,0,0,0,.282-.288v-1.208A.252.252,0,0,0,755.808,471.779Z" transform="translate(-723.697 -453.427)" fill="#006dff"/>
      <path id="Tracé_4" data-name="Tracé 4" d="M688.71,528.621a.251.251,0,0,0-.281.287v19.561a.251.251,0,0,0,.281.288h4.342a4.42,4.42,0,0,0,3.468-1.453,5.638,5.638,0,0,0,1.3-3.9v-9.435a5.638,5.638,0,0,0-1.3-3.9,4.42,4.42,0,0,0-3.468-1.453Zm6.344,2.761a4.37,4.37,0,0,1,.733,2.675v9.262a4.391,4.391,0,0,1-.775,2.647,2.378,2.378,0,0,1-1.988.978l-2.481.029a.1.1,0,0,1-.113-.115V530.519a.1.1,0,0,1,.113-.115h2.481A2.4,2.4,0,0,1,695.054,531.382Z" transform="translate(-687.385 -499.855)" fill="#006dff"/>
      <path id="Tracé_5" data-name="Tracé 5" d="M718.851,534.518a.329.329,0,0,0,.338-.23l1.663-5.351c.057-.21-.019-.316-.225-.316h-1.466a.292.292,0,0,0-.31.259l-1.269,5.322q-.085.317.225.317Z" transform="translate(-705.375 -499.855)" fill="#006dff"/>
      <path id="Tracé_6" data-name="Tracé 6" d="M733.48,528.621h-1.438a.251.251,0,0,0-.282.287v19.561a.252.252,0,0,0,.282.288h1.438a.252.252,0,0,0,.282-.288V528.908A.252.252,0,0,0,733.48,528.621Z" transform="translate(-714.141 -499.855)" fill="#006dff"/>
      <path id="Tracé_7" data-name="Tracé 7" d="M753.031,539.425a29.843,29.843,0,0,0-2.523-2.057q-1.269-.978-1.917-1.582a4.283,4.283,0,0,1-.972-1.28,3.586,3.586,0,0,1-.325-1.568,3.358,3.358,0,0,1,.733-2.316,2.389,2.389,0,0,1,1.861-.82,2.418,2.418,0,0,1,1.987.935,3.824,3.824,0,0,1,.747,2.46v.748a.252.252,0,0,0,.282.287h1.41a.252.252,0,0,0,.282-.287v-.719a5.442,5.442,0,0,0-1.282-3.783,4.823,4.823,0,0,0-6.724-.115,4.887,4.887,0,0,0-1.269,3.552,5.63,5.63,0,0,0,.521,2.5,6.2,6.2,0,0,0,1.339,1.826,28.409,28.409,0,0,0,2.228,1.827q1.409,1.094,2.015,1.626a4.437,4.437,0,0,1,.987,1.237,3.492,3.492,0,0,1,.381,1.682,3.427,3.427,0,0,1-.79,2.359,2.525,2.525,0,0,1-1.973.892,2.427,2.427,0,0,1-1.974-.935,3.773,3.773,0,0,1-.761-2.46v-.576a.252.252,0,0,0-.282-.287H745.63a.252.252,0,0,0-.282.287v.662a5.22,5.22,0,0,0,1.3,3.682,4.38,4.38,0,0,0,3.383,1.409,4.451,4.451,0,0,0,3.411-1.423,5.334,5.334,0,0,0,1.325-3.783,5.163,5.163,0,0,0-.451-2.258A5.965,5.965,0,0,0,753.031,539.425Z" transform="translate(-722.513 -499.484)" fill="#006dff"/>
      <path id="Tracé_8" data-name="Tracé 8" d="M786.4,528.621h-8.374a.251.251,0,0,0-.281.287v19.561a.251.251,0,0,0,.281.288H786.4a.252.252,0,0,0,.282-.288v-1.208a.252.252,0,0,0-.282-.288h-6.541a.1.1,0,0,1-.113-.115V539.7a.1.1,0,0,1,.113-.115h4.116a.252.252,0,0,0,.282-.287v-1.237a.252.252,0,0,0-.282-.288h-4.116a.1.1,0,0,1-.113-.115v-7.134a.1.1,0,0,1,.113-.115H786.4a.252.252,0,0,0,.282-.288v-1.208A.252.252,0,0,0,786.4,528.621Z" transform="translate(-742.535 -499.855)" fill="#006dff"/>
      <path id="Tracé_9" data-name="Tracé 9" d="M783.978,517.514a.406.406,0,0,0,.338.2h.9c.169,0,.254-.057.254-.173a.452.452,0,0,0-.056-.172l-1.72-3.135a.408.408,0,0,0-.338-.2h-1.184c-.151,0-.225.058-.225.173a.442.442,0,0,0,.057.173Z" transform="translate(-745.128 -490.848)" fill="#006dff"/>
      <path id="Tracé_10" data-name="Tracé 10" d="M815.874,539.437a.1.1,0,0,1,.085-.144,4.314,4.314,0,0,0,2.143-1.9,6.285,6.285,0,0,0,.789-3.221,6.1,6.1,0,0,0-1.269-4.013,4.1,4.1,0,0,0-3.327-1.539h-4.652a.251.251,0,0,0-.282.287v19.561a.252.252,0,0,0,.282.288h1.438a.252.252,0,0,0,.282-.288v-8.8a.1.1,0,0,1,.112-.115h2.453a.111.111,0,0,1,.113.086l2.875,8.889a.329.329,0,0,0,.339.23h1.465q.254,0,.254-.2l-.028-.115Zm-1.861-1.525h-2.538a.1.1,0,0,1-.112-.115v-7.277a.1.1,0,0,1,.112-.115h2.538a2.5,2.5,0,0,1,2.087,1.035,4.393,4.393,0,0,1,.79,2.733,4.325,4.325,0,0,1-.79,2.718A2.507,2.507,0,0,1,814.013,537.912Z" transform="translate(-762.055 -499.855)" fill="#006dff"/>
      <path id="Tracé_11" data-name="Tracé 11" d="M844.124,530.4h6.541a.252.252,0,0,0,.282-.288v-1.208a.252.252,0,0,0-.282-.287h-8.373a.251.251,0,0,0-.282.287v19.561a.252.252,0,0,0,.282.288h8.373a.252.252,0,0,0,.282-.288v-1.208a.252.252,0,0,0-.282-.288h-6.541a.1.1,0,0,1-.112-.115V539.7a.1.1,0,0,1,.112-.115h4.116a.252.252,0,0,0,.282-.287v-1.237a.252.252,0,0,0-.282-.288h-4.116a.1.1,0,0,1-.112-.115v-7.134A.1.1,0,0,1,844.124,530.4Z" transform="translate(-782.214 -499.855)" fill="#006dff"/>
    </g>
    <path id="Tracé_12" data-name="Tracé 12" d="M214.708,410.481a101.842,101.842,0,0,1,10.542-45.413,1.788,1.788,0,1,0-3.208-1.581,105.388,105.388,0,0,0-10.91,46.994,106.689,106.689,0,0,0,12.076,49.288,1.788,1.788,0,1,0,3.168-1.658A103.1,103.1,0,0,1,214.708,410.481Z" transform="translate(0 -94.329)" fill="#006dff"/>
    <path id="Tracé_13" data-name="Tracé 13" d="M482.152,613.68a1.788,1.788,0,0,0-2.424.719,103.009,103.009,0,0,1-14.615,20.47q-2.832-2.947-5.52-6.1a.774.774,0,0,0-1.225.063c-1.8,2.691-3.111,4.2-3.933,4.711a.731.731,0,0,1-.751,0c-4.81-2.637-8.948-6.7-12.9-12.676a.77.77,0,0,0-1.314.027c-2.887,4.917-5.65,7.849-8.555,9.225-1.788.9-3.719.295-5.909-2.056a.76.76,0,0,0-1.189.1,72.441,72.441,0,0,1-8.787,10.719c-.867-1.153-1.743-2.36-2.592-3.612a.766.766,0,0,0-1.189-.107c-2.19,2.36-4.121,2.959-5.918,2.065-2.905-1.376-5.668-4.318-8.546-9.225a.77.77,0,0,0-1.314-.036c-3.96,5.981-8.081,10.048-12.9,12.685a.747.747,0,0,1-.76,0c-.813-.509-2.127-2.029-3.933-4.711a.765.765,0,0,0-1.216-.071,132.545,132.545,0,0,1-27.3,24.419,102.639,102.639,0,0,1-19.316-10.728,1.788,1.788,0,0,0-2.062,2.923,106.443,106.443,0,0,0,124.234-1.233c2.157-1.572,4.293-3.273,6.338-5.045,1.12-.955,2.247-1.969,3.438-3.091,1.987-1.85,3.9-3.787,5.685-5.749A106.523,106.523,0,0,0,482.871,616.1,1.789,1.789,0,0,0,482.152,613.68Zm-61.92,25.953a.764.764,0,0,1,1.02,1.117c-.778.957-1.555,1.9-2.369,2.8-.581-.662-1.162-1.323-1.734-2.011C418.194,640.956,419.222,640.313,420.232,639.633Zm-65.839,20.686a.751.751,0,0,1,.992-.241c3.862,2.283,6.681,3.905,8.618,5.11a101.553,101.553,0,0,1-11.738-3.727A3.551,3.551,0,0,0,354.393,660.319Zm101.831-16.825c-1.98,1.716-4.037,3.354-6.12,4.872A101.96,101.96,0,0,1,389.248,668.3a103.326,103.326,0,0,1-23.9-2.787.758.758,0,0,0,.347-.467,11.787,11.787,0,0,0-.823-6.874c-.223-.6.525-1.353,1.169-1.329a3.826,3.826,0,0,1,1.468.453c2.4,1.788,4.274,3.111,5.623,4.04a.767.767,0,0,0,1.2-.778,27.663,27.663,0,0,0-2.887-6.83.769.769,0,0,1,.241-1.01,17.807,17.807,0,0,0,6.6-9.592.774.774,0,0,1,1.251-.34c10.138,9.137,19.363,16.592,28.75,23.6a71.138,71.138,0,0,1-10.4-10.3.775.775,0,0,1,.813-1.234,17.467,17.467,0,0,0,5.73.546.773.773,0,0,0,.313-1.457,54.348,54.348,0,0,1-12.417-8.8.781.781,0,0,1-.071-1.073c1.413-1.573,2.574-4.094,3.692-7.688a.771.771,0,0,1,1.466-.018c1.207,3.585,2.387,5.784,3.469,6.884l.072.071q5.122,4.331,10.37,8.018c.4.277.8.563,1.2.832,3.674,2.557,7.411,4.908,11.273,7.134a.766.766,0,0,0,.894-1.234,90.625,90.625,0,0,1-8.1-8.332c-.536-.609-1.063-1.243-1.582-1.887a.308.308,0,0,1-.063-.1.764.764,0,0,1,1.037-1.055.341.341,0,0,0,.054.027c.876.607,1.761,1.162,2.673,1.681a40.178,40.178,0,0,0,6.32,2.995.773.773,0,0,0,.742-1.332q-2.1-1.689-4.067-3.611a151.529,151.529,0,0,0,13.6-10.235.312.312,0,0,1,.09-.072c1.081-1.1,2.262-3.307,3.468-6.883a.765.765,0,0,1,1.457.017c1.118,3.594,2.28,6.115,3.692,7.68a.771.771,0,0,1-.072,1.073,54.835,54.835,0,0,1-12.408,8.8.769.769,0,0,0,.295,1.457,17.827,17.827,0,0,0,5.748-.554.768.768,0,0,1,.8,1.234,71.28,71.28,0,0,1-10.4,10.308c9.4-7.018,18.63-14.465,28.758-23.609a.778.778,0,0,1,1.252.348,23,23,0,0,0,1.827,4.231c-.086.081-.17.163-.256.243C458.392,641.594,457.309,642.569,456.224,643.494Z" transform="translate(-71.682 -249.292)" fill="#006dff"/>
    <path id="Tracé_14" data-name="Tracé 14" d="M728.176,356.815a1.788,1.788,0,0,0-.756,2.413,102.34,102.34,0,0,1,8.323,21.524,1.788,1.788,0,0,0,1.728,1.336,1.807,1.807,0,0,0,.453-.059,1.787,1.787,0,0,0,1.278-2.182,105.926,105.926,0,0,0-8.613-22.278A1.788,1.788,0,0,0,728.176,356.815Z" transform="translate(-318.655 -90.7)" fill="#006dff"/>
    <path id="Tracé_15" data-name="Tracé 15" d="M365.743,223.973a101.823,101.823,0,0,1,45.694-10.681,103.074,103.074,0,0,1,47.921,11.821,1.788,1.788,0,1,0,1.668-3.163,106.669,106.669,0,0,0-49.59-12.234,105.373,105.373,0,0,0-47.284,11.054,1.788,1.788,0,0,0,1.591,3.2Z" transform="translate(-93.869)" fill="#006dff"/>
    <path id="Tracé_16" data-name="Tracé 16" d="M263.263,299.1c3.826,1.059,10.9,4.467,11.585,6.312s-.467,6.08-4.941,2.492-12.161-10.421-20.466-.788-1.85,18.564,2.076,22.342,17.061,11.333,31.014,5.52,19.737-18.419,20.547-22.712,1.013-15.143-7.757-23.131c-6.536-5.952-12.938-6.355-14.118-6.81-1.5-.578-2.939-2.175-1.968-4.243,1.612-3.433,7.069.759,8.319,1.852a9.456,9.456,0,0,0,13.508-2.425c4.485-6.311.9-12.292-2.253-15.448s-10.829-8.55-17.939-9.8-17.3-1.042-22.655,2.377-9.082,7.131-10.568,13.815c-1.57,7.064-1.18,14.1,2.434,20.433C252.806,293.657,259.3,298,263.263,299.1Z" transform="translate(-21.16 -25.833)" fill="#ef3e42"/>
    <path id="Tracé_17" data-name="Tracé 17" d="M384.629,329.745s9.4,4.748,18.251-8.3c3.046-4.238,3.713-9.744,3.758-13.481a.387.387,0,0,1,.763-.088c1.043,4.16,2.741,10.3,4.216,12.684,2.322,3.76,8.184,2.433,9.18,1.991,0,0,4.215-.6,7.411-8.821a86.124,86.124,0,0,0,5.071-23.152c.6-9.867.4-14.529-.913-23.234s-8.835-8.705-10.525-8.705-6.242,1.168-8.445,4.028c-2.333,3.028-4.158,5.977-4.158,5.977s-3.508-6.5-7.276-8.706-12.547-1.4-16.149,5.277c0,0,6.831,4.569,4.578,13.893-1.7,7.027-9.221,10.2-9.221,10.2s9.787,7.125,10.331,19.574C392.134,323.355,384.629,329.745,384.629,329.745Z" transform="translate(-104.989 -30.206)" fill="#ef3e42"/>
    <path id="Tracé_18" data-name="Tracé 18" d="M521.763,285.558c-.027,1.019-.081,1.976-.143,2.843-.1,1.279-.232,2.584-.393,3.9,0,.036-.009.062-.009.089a81.936,81.936,0,0,1-3.24,16.32,3.29,3.29,0,0,0,.116,2.423,6.375,6.375,0,0,0,.563,1c2.172,3.031,8.541,9.471,18.884,3.079,13.168-8.144,17.733-24.592,18.192-30.4.363-4.6.3-21.777-10.889-29.107-8.367-5.48-19.586,2.825-23.243,6.24a3.249,3.249,0,0,0-.742,2.324,114.751,114.751,0,0,1,.974,19.944C521.816,284.664,521.79,285.111,521.763,285.558Zm10.969,5.015a14.31,14.31,0,0,0,.536-2.994,29.163,29.163,0,0,0-.076-3.6.9.9,0,0,1,.3-.755c.677-.588,2.21-1.575,3.418-.786,1.761,1.153,1.717,3.853,1.717,4.577a6.988,6.988,0,0,1-2.861,4.774,2.008,2.008,0,0,1-2.941-.474A1.409,1.409,0,0,1,532.732,290.572Z" transform="translate(-189.351 -27.267)" fill="#ef3e42"/>
    <path id="Tracé_19" data-name="Tracé 19" d="M617.037,285.013c-1.066,12.873-4.185,16.962-4.185,16.962s1.792,3.9,9.677,2.988c6.457-.745,10.474-8.1,11.716-10.74a.393.393,0,0,1,.727.026c3.111,9.129,13.915,14.4,14.851,5.71,1.36-12.639,6.115-29.33,7.8-36.408a4.51,4.51,0,0,0-2.105-4.995,12.2,12.2,0,0,0-4.479-1.357c-6.962-.87-10.008,5.914-10.008,5.914a9.665,9.665,0,0,0-7.43-3.487,8.565,8.565,0,0,0-7.127,3.942c-8.794-7.43-15.54-2.745-15.54-2.745S618.054,272.747,617.037,285.013Z" transform="translate(-246.855 -29.271)" fill="#ef3e42"/>
    <path id="Tracé_20" data-name="Tracé 20" d="M285.7,541.7c1.848-1.526,6.844-4.66,9.611-6.408s6.484-2.95,7.31-11.625c.774-8.131-3.815-10.8-5.417-11.092s-5.037.02-5.037-1.762c0-2.013,2.861-1.871,6.884-2.718s12.492-8.045,12.916-15.668-4.023-12.28-6.776-12.915-7.41-1.27-22.443,2.329-17.15,15.244-17.786,18.844c0,0-8.789,57.24-7.8,63.3.768,4.728,6.116,8.883,9.9,8.883s7.573-2.621,10.048-5.825,4.313-15.467,4.951-18.931A10.517,10.517,0,0,1,285.7,541.7Z" transform="translate(-28.371 -166.28)" fill="#ef3e42"/>
    <path id="Tracé_21" data-name="Tracé 21" d="M370.339,509.9s11.443,25.639,43.452-2.025c13.677-11.82,22.2-48.878,19.769-65.436a8.814,8.814,0,0,0-5.979-7.146c-5.169-1.659-13.423-1.089-19.675,14.646a26.589,26.589,0,0,0-1.841,8.462l-.825,16.235a9.339,9.339,0,0,1-1.891,5.175,1.944,1.944,0,0,1-3.308-.351,9.278,9.278,0,0,1-.507-6.543c1.364-4.674,3.495-13.715,2.712-22.508a5.635,5.635,0,0,0-.256-1.292c-3.132-9.3-16.747-5.606-18.836,1.993,0,0,12.715,19.034-10.147,32.428C373.007,483.537,383.121,497.688,370.339,509.9Z" transform="translate(-98.302 -138.89)" fill="#ef3e42"/>
    <path id="Tracé_22" data-name="Tracé 22" d="M545.339,453.282a.41.41,0,0,1,.723-.167c1.384,1.812,5.454,6.318,11.148,5.433,8.522-1.325,10.743-6.706,12.055-11.034.978-3.227,8.928-35.523,8.666-40.506s-5.115-8-10.885-7.082c-5.425.863-10.733,13.2-12.331,17.836a.525.525,0,0,1-.858.218c-1.828-1.718-7.4-6.83-10.547-8.349-3.8-1.836-8.131-.131-9.18,1.049s-1.708,2.492-1.126,7.271c.483,3.969,3.576,23.476-8.123,53.915C524.881,471.866,538.582,482.082,545.339,453.282Z" transform="translate(-193.723 -117.344)" fill="#ef3e42"/>
  </g>
</svg>
