<svg id="WEBCAM" xmlns="http://www.w3.org/2000/svg" width="69.108" height="99.97" viewBox="0 0 69.108 99.97">
  <path id="Tracé_32" data-name="Tracé 32" d="M69.108,8.565V60.4A8.249,8.249,0,0,1,66.45,66.45h0A8.249,8.249,0,0,1,60.4,69.108H42.38v9.6h9.894v7.826h5.907a4.493,4.493,0,0,1,3.544,1.624h0A4.891,4.891,0,0,1,63.2,91.7V99.97H5.759V91.7a4.891,4.891,0,0,1,1.477-3.544h0a4.962,4.962,0,0,1,3.544-1.624h5.907V78.706H26.728v-9.6H8.565A8.5,8.5,0,0,1,2.51,66.45h0A8.719,8.719,0,0,1,0,60.4V8.565A9,9,0,0,1,2.51,2.51h0A9,9,0,0,1,8.565,0H60.4A8.719,8.719,0,0,1,66.45,2.51h0A8.5,8.5,0,0,1,69.108,8.565ZM52.274,89.486H10.78a2.35,2.35,0,0,0-1.477.738h0A2.256,2.256,0,0,0,8.712,91.7v5.316H60.248V91.7a1.712,1.712,0,0,0-.591-1.477h0a1.817,1.817,0,0,0-1.477-.738ZM42.38,81.66H19.64v4.873H49.321V81.66ZM39.427,69.108H29.681v9.6h9.746ZM66.155,60.4V8.565a5.854,5.854,0,0,0-1.772-3.987h0A5.453,5.453,0,0,0,60.4,2.953H8.565A5.705,5.705,0,0,0,4.578,4.578h0A5.705,5.705,0,0,0,2.953,8.565V60.4a5.453,5.453,0,0,0,1.624,3.987h0a5.854,5.854,0,0,0,3.987,1.772H60.4a5.577,5.577,0,0,0,3.987-1.772h0A5.577,5.577,0,0,0,66.155,60.4Z" fill="#ef3e42"/>
  <path id="Tracé_33" data-name="Tracé 33" d="M89.956,65a24.8,24.8,0,0,1,17.572,7.383h0a24.761,24.761,0,0,1,7.236,17.572,24.7,24.7,0,0,1-24.808,24.808,24.761,24.761,0,0,1-17.572-7.236h0A24.8,24.8,0,0,1,65,89.956a24.285,24.285,0,0,1,7.383-17.572h0A24.285,24.285,0,0,1,89.956,65Zm15.5,9.451a21.749,21.749,0,0,0-31.01,0h0a21.749,21.749,0,0,0,0,31.01h0a21.928,21.928,0,0,0,31.01-31.01Z" transform="translate(-55.402 -55.402)" fill="#ef3e42"/>
  <path id="Tracé_34" data-name="Tracé 34" d="M135.982,119a16.89,16.89,0,0,1,16.982,16.982,17.144,17.144,0,0,1-16.982,16.982A16.89,16.89,0,0,1,119,135.982,16.649,16.649,0,0,1,135.982,119Zm9.894,7.088a13.992,13.992,0,1,0-19.787,19.787,13.992,13.992,0,1,0,19.787-19.787Z" transform="translate(-101.428 -101.428)" fill="#ef3e42"/>
  <path id="Tracé_35" data-name="Tracé 35" d="M174.953,181.155a1.48,1.48,0,0,1-1.477,1.477A1.588,1.588,0,0,1,172,181.155,9.076,9.076,0,0,1,181.155,172a3.669,3.669,0,0,1,1.181.148h0c.443,0,.738.148,1.181.148a1.692,1.692,0,0,1,1.034,1.92,1.6,1.6,0,0,1-1.772,1.034c-.3-.148-.591-.148-.886-.3h-.738a6.056,6.056,0,0,0-6.2,6.2Z" transform="translate(-146.601 -146.601)" fill="#ef3e42"/>
  <path id="Tracé_36" data-name="Tracé 36" d="M44.611,39A5.705,5.705,0,0,1,48.6,40.624a6.109,6.109,0,0,1,1.624,3.987A6.44,6.44,0,0,1,48.6,48.6a5.705,5.705,0,0,1-3.987,1.624A5.453,5.453,0,0,1,40.624,48.6,5.705,5.705,0,0,1,39,44.611,5.547,5.547,0,0,1,44.611,39Zm1.772,3.692a2.445,2.445,0,0,0-1.772-.738,2.532,2.532,0,0,0-2.658,2.658,3.11,3.11,0,0,0,.738,1.92,2.807,2.807,0,0,0,1.92.738,2.445,2.445,0,0,0,1.772-.738,2.6,2.6,0,0,0,.886-1.92A2.381,2.381,0,0,0,46.383,42.692Z" transform="translate(-33.241 -33.241)" fill="#ef3e42"/>
</svg>
